<mxfile host="65bd71144e">
    <diagram id="Itrxa3Er-il4ug2zRcWA" name="Page-1">
        <mxGraphModel dx="2222" dy="2806" grid="1" gridSize="10" guides="1" tooltips="1" connect="1" arrows="1" fold="1" page="1" pageScale="1" pageWidth="850" pageHeight="1100" math="0" shadow="0">
            <root>
                <mxCell id="0"/>
                <mxCell id="1" parent="0"/>
                <mxCell id="2" value="" style="shape=image;verticalLabelPosition=bottom;labelBackgroundColor=default;verticalAlign=top;aspect=fixed;imageAspect=0;image=https://www.w3resource.com/w3r_images/insertion-sort.png;" parent="1" vertex="1">
                    <mxGeometry x="-30" y="-520" width="729.26" height="460" as="geometry"/>
                </mxCell>
                <mxCell id="3" value="" style="shape=image;verticalLabelPosition=bottom;labelBackgroundColor=default;verticalAlign=top;aspect=fixed;imageAspect=0;image=https://www.w3resource.com/w3r_images/Insertion-sort-animation.gif;" parent="1" vertex="1">
                    <mxGeometry x="-470" y="-520" width="430" height="258" as="geometry"/>
                </mxCell>
                <mxCell id="4" value="" style="shape=image;verticalLabelPosition=bottom;labelBackgroundColor=default;verticalAlign=top;aspect=fixed;imageAspect=0;image=https://upload.wikimedia.org/wikipedia/commons/9/9c/Insertion-sort-example.gif;" vertex="1" parent="1">
                    <mxGeometry x="-660" y="-1190" width="520" height="312" as="geometry"/>
                </mxCell>
            </root>
        </mxGraphModel>
    </diagram>
</mxfile>